<svg width="897" height="245" viewBox="0 0 897 245" fill="none" xmlns="http://www.w3.org/2000/svg">
<path d="M403.912 71.418V161.877H382.853L342.936 113.674V161.877H317.875V71.418H338.934L378.851 119.62V71.418H403.912Z" fill="white"/>
<path d="M482.638 144.3H444.404L437.299 161.877H411.202L451.119 71.418H476.312L516.357 161.877H489.744L482.638 144.3ZM475.151 125.433L463.521 96.4853L451.892 125.433H475.148H475.151Z" fill="white"/>
<path d="M513.963 150.377L527.916 133.836C532.692 140.039 537.729 143.269 543.548 143.269C550.91 143.269 554.912 138.744 554.912 130.09V91.1892H523.652V71.418H580.23V128.537C580.23 152.055 568.088 163.686 545.351 163.686C532.175 163.686 520.937 159.035 513.963 150.375V150.377Z" fill="white"/>
<path d="M656.225 144.3H617.991L610.886 161.877H584.789L624.706 71.4179H649.898L689.944 161.877H663.331L656.225 144.3ZM642.271 64.0532H624.706L642.014 44.4131H666.56L642.271 64.0532ZM648.735 125.433L637.105 96.4853L625.476 125.433H648.732H648.735Z" fill="white"/>
<path d="M697.231 71.418H739.994C769.962 71.418 790.5 88.8637 790.5 116.647C790.5 144.431 769.962 161.877 739.994 161.877H697.231V71.418ZM738.959 141.458C754.331 141.458 764.665 132.281 764.665 116.647C764.665 101.013 754.331 91.8369 738.959 91.8369H722.814V141.46H738.959V141.458Z" fill="white"/>
<path d="M863.282 144.3H825.047L817.942 161.877H791.845L831.762 71.418H856.955L897 161.877H870.387L863.282 144.3ZM855.794 125.433L844.164 96.4853L832.535 125.433H855.791H855.794Z" fill="white"/>
<path d="M43.9913 222.06H59.5503L78.1805 245L85.9815 222.06L99.0793 227.982H108.79L125.46 214.342L146.217 206.432L163.218 199.203L187.225 217.069H236.535L245.986 219.435C260.836 197.156 272.096 168.939 272.096 135.217C272.096 86.4337 257.811 113.166 227.195 98.6851C220.989 95.7494 212.222 59.1238 204.349 47.9884C210.358 53.6725 220.89 62.6697 212.827 50.1748C210.12 45.9813 166.444 26.8041 163.616 22.0272C125.321 -42.6951 -0.280901 60.1407 0.28892 135.22C0.553766 170.189 11.7709 199.835 31.5836 224.105L43.9913 222.057V222.06Z" fill="black"/>
<path d="M114.922 56.3754H111.752C109.349 59.2148 108.785 64.2004 108.785 64.2004C110.778 58.7786 114.919 56.3754 114.919 56.3754H114.922Z" fill="white"/>
<path d="M119.114 65.378C116.096 64.9685 115.125 62.924 115.125 62.924L112.977 64.4574C115.048 65.865 119.111 65.378 119.111 65.378H119.114Z" fill="white"/>
<path d="M124.686 64.6768C124.347 64.3878 123.937 64.1148 123.937 64.1148C122.897 65.1371 121.278 65.2575 121.278 65.2575C123.563 65.5305 124.686 64.6768 124.686 64.6768Z" fill="white"/>
<path d="M121.926 62.6162C121.155 61.1416 117.878 61.056 117.223 62.7179C120.136 63.7401 121.926 62.6162 121.926 62.6162Z" fill="white"/>
<path d="M156.746 56.3754C156.746 56.3754 160.887 58.7786 162.881 64.2004C162.881 64.2004 162.319 59.2148 159.916 56.3754H156.746Z" fill="white"/>
<path d="M152.552 65.378C152.552 65.378 156.615 65.865 158.688 64.4574L156.54 62.924C156.54 62.924 155.569 64.9712 152.552 65.378Z" fill="white"/>
<path d="M146.979 64.6768C146.979 64.6768 148.103 65.5305 150.387 65.2575C150.387 65.2575 148.769 65.1371 147.728 64.1148C147.728 64.1148 147.319 64.3878 146.979 64.6768Z" fill="white"/>
<path d="M149.74 62.6162C149.74 62.6162 151.53 63.7401 154.443 62.7179C153.785 61.056 150.51 61.1416 149.74 62.6162Z" fill="white"/>
<path d="M77.2388 93.5576C77.2388 93.5576 83.8332 75.5018 91.6074 68.699C91.6074 68.699 85.0077 72.1004 81.1259 79.8317C81.1259 79.8317 89.3067 59.5948 103.828 48.4434C103.828 48.4434 93.2955 60.9222 96.0563 92.1232C96.0563 92.1232 95.7995 76.9335 99.5341 70.1308C99.5341 70.1308 97.7444 84.8602 102.961 102.303C102.961 102.303 108.229 118.687 108.229 126.667C108.229 134.647 105.23 149.989 105.23 149.989C105.23 149.989 110.548 136.895 111.091 130.076C111.091 130.076 111.294 148.624 107.001 161.582C126.158 119.029 104.002 106.208 105.5 74.9746C105.84 67.8774 104.887 40.9448 126.361 33.647C126.361 33.647 131.337 32.8977 133.587 37.6023C133.587 37.6023 118.59 41.6246 114.09 53.0142C114.09 53.0142 120.414 52.3425 125.024 52.6048C126.992 52.7172 128.753 53.8599 129.708 55.586C130.663 57.3148 131.693 59.6751 131.749 61.8963C131.749 61.8963 132.057 65.9372 128.887 66.5501C124.395 67.4198 108.006 66.7936 108.333 75.4482C108.333 75.4482 110.735 73.8104 114.264 74.3243C114.264 74.3243 115.952 90.2312 118.865 95.4978C118.865 95.4978 121.217 94.6281 123.057 94.6789C123.057 94.6789 123.314 98.669 124.181 101.225C125.05 103.783 127.351 103.015 128.579 102.453C129.807 101.891 133.64 100.815 135.839 100.815C138.038 100.815 141.872 101.888 143.1 102.453C144.328 103.015 146.629 103.783 147.498 101.225C148.367 98.6664 148.622 94.6789 148.622 94.6789C150.462 94.6281 152.814 95.4978 152.814 95.4978C155.727 90.2285 157.415 74.3243 157.415 74.3243C160.944 73.8131 163.346 75.4482 163.346 75.4482C163.672 66.7909 147.284 67.4171 142.792 66.5501C139.622 65.9372 139.93 61.8963 139.93 61.8963C139.983 59.6751 141.013 57.3148 141.971 55.586C142.926 53.8599 144.686 52.7172 146.655 52.6048C151.265 52.3398 157.589 53.0142 157.589 53.0142C153.089 41.6246 138.092 37.6023 138.092 37.6023C140.312 32.9593 145.181 33.6283 145.312 33.647C165.973 42.9921 166.722 61.7437 166.655 82.4089C166.615 94.7512 161.064 104.3 162.019 120.19C164.601 95.9902 173.678 92.2972 170.54 67.8855C170.54 67.8855 175.994 83.5703 173.266 98.0268C182.372 71.8354 169.429 48.2989 164.676 42.6522C164.676 42.6522 188.127 55.3371 193.718 80.5704C193.718 80.5704 191.674 74.161 180.901 65.5679C180.901 65.5679 197.262 85.8905 196.444 102.94C196.444 102.94 201.01 82.7541 191.671 62.841C182.84 40.2678 151.54 20.7266 135.668 28.8808C98.9402 20.3761 80.9574 66.1166 80.9574 66.1166C80.9574 66.1166 76.6797 77.2493 77.2415 93.5657L77.2388 93.5576ZM141.559 94.4782C139.513 94.786 135.831 93.9162 135.831 93.9162C135.831 93.9162 132.15 94.786 130.104 94.4782C128.06 94.1705 125.452 92.2276 125.452 92.2276C125.452 92.2276 130.411 88.8262 135.831 88.9547C141.251 88.8262 146.211 92.2276 146.211 92.2276C146.211 92.2276 143.603 94.1705 141.559 94.4782ZM148.001 88.6978C143.092 85.4249 135.831 85.2696 135.831 85.2696C135.831 85.2696 128.571 85.4222 123.662 88.6978C125.042 83.4285 130.478 80.9397 131.479 80.4981C131.479 80.4981 134.759 80.8219 135.831 80.8219C136.904 80.8219 140.184 80.4981 140.184 80.4981C141.185 80.9397 146.621 83.4285 148.001 88.6978ZM135.831 67.0211C137.875 67.0211 139.718 69.914 142.121 73.4063C143.095 74.8247 141.864 76.8318 139.973 76.6792C138.143 76.5294 135.831 76.4223 135.831 76.4223C135.831 76.4223 133.52 76.5294 131.69 76.6792C129.799 76.8318 128.568 74.822 129.542 73.4063C131.942 69.914 133.785 67.0211 135.831 67.0211Z" fill="white"/>
<path d="M182.803 82.2054C182.803 82.2054 189.007 96.322 190.711 110.029C190.812 110.848 195.499 94.7619 182.803 82.2054Z" fill="white"/>
<path d="M176.532 106.617C176.532 106.617 174.009 118.483 178.169 130.622C178.169 130.622 180.623 119.778 176.532 106.617Z" fill="white"/>
<path d="M169.306 150.945C169.306 150.945 169.783 142.625 170.807 138.602C170.807 138.602 173.26 149.103 173.397 155.855C173.397 155.855 175.034 153.945 175.443 150.672C175.443 150.672 179.124 160.833 179.534 166.766C179.534 166.766 182.123 152.376 174.079 131.032C174.079 131.032 174.146 136.692 173.67 139.352C173.67 139.352 168.557 130.009 170.261 116.302C170.261 116.302 165.831 124.076 166.171 135.123C166.511 146.17 169.306 150.945 169.306 150.945Z" fill="white"/>
<path d="M188.531 178.225C192.551 169.702 192.757 155.449 192.757 155.449C195.962 169.225 192.348 180.409 192.348 180.409C199.873 165.564 198.509 155.283 190.711 145.766C180.144 164.315 188.531 178.228 188.531 178.228V178.225Z" fill="white"/>
<path d="M182.26 91.0688C182.26 91.0688 180.01 123.734 184.033 144.535C184.033 144.535 191.123 120.803 182.26 91.0688Z" fill="white"/>
<path d="M192.212 118.213C192.212 118.213 191.12 132.602 197.803 144.808C197.803 144.808 199.916 129.873 192.212 118.213Z" fill="white"/>
<path d="M212.254 109.074C214.298 115.553 213.209 122.032 213.209 122.032C216.858 117.793 219.148 114.407 220.574 111.747C218.806 98.6985 215.665 92.7628 215.665 92.7628C214.132 93.1964 211.026 96.7984 211.026 96.7984C208.71 113.233 200.12 124.759 200.12 124.759C209.665 115.553 212.254 109.074 212.254 109.074Z" fill="white"/>
<path d="M222.752 127.486C225.138 136.146 223.025 146.58 223.025 146.58C229.229 131.304 225.341 120.53 225.341 120.53C216.684 125.917 214.571 134.714 214.571 134.714C219.48 128.508 222.752 127.486 222.752 127.486Z" fill="white"/>
<path d="M211.163 134.034C211.163 134.034 211.026 143.24 206.527 150.401C206.527 150.401 212.185 158.788 212.661 165.404C212.661 165.404 218.592 151.491 211.16 134.034H211.163Z" fill="white"/>
<path d="M198.894 197.319C198.894 197.319 198.009 181.498 202.712 173.041C202.712 173.041 205.917 184.907 204.485 195.136C204.485 195.136 213.825 177.61 202.169 158.992C202.169 158.992 194.67 175.495 198.897 197.317L198.894 197.319Z" fill="white"/>
<path d="M210.62 196.091C211.369 183.885 216.893 176.041 216.893 176.041C214.576 184.361 216.484 196.364 216.484 196.364C220.368 178.905 228.142 161.175 228.142 161.175C227.187 180.885 220.438 198.138 220.438 198.138C234.413 181.498 235.435 154.766 235.435 154.766C238.161 170.724 234.616 187.774 234.616 187.774C240.684 180.339 241.024 170.86 241.024 170.86C244.229 180.339 241.16 191.729 241.16 191.729C248.113 178.704 243.613 166.086 243.613 166.086C242.029 153.401 233.795 141.535 233.795 141.535C230.796 145.967 217.64 159.811 212.185 172.156C206.73 184.498 210.617 196.094 210.617 196.094L210.62 196.091Z" fill="white"/>
<path d="M50.278 205.366C50.278 205.366 44.6868 188.726 32.552 180.133C32.552 180.133 46.0512 184.907 53.0041 193.091C53.0041 193.091 50.1416 186.085 44.9249 181.838C44.9249 181.838 52.0329 183.628 54.9463 186.952C49.3551 176.943 41.2037 172.166 28.0523 174.299C23.0764 174.81 17.1454 176.994 17.1454 176.994C17.1454 176.994 35.8238 184.495 50.278 205.364V205.366Z" fill="white"/>
<path d="M76.455 226.915C76.455 226.915 70.524 192.476 71.0002 183.406C71.4764 174.337 74.6813 159.128 74.6813 159.128C67.1131 165.131 62.6134 173.518 60.8424 183.406C59.0688 193.294 66.0912 204.957 66.0912 204.957C62.8863 192.478 65.2726 184.634 65.2726 184.634C66.9098 203.389 76.4523 226.915 76.4523 226.915H76.455Z" fill="white"/>
<path d="M76.5914 190.091C77.2736 202.503 81.364 213.277 81.364 213.277C81.364 213.277 79.1141 193.91 83.4079 179.86C83.4079 179.86 88.1109 189.272 85.1815 207.684C85.1815 207.684 89.5448 200.659 91.1794 192.272C91.1794 192.272 92.2709 200.523 90.7701 207.002C90.7701 207.002 95.4062 198.408 95.4062 188.317C95.4062 178.225 83.9536 162.538 83.9536 162.538C83.9536 162.538 75.9092 177.676 76.5914 190.088V190.091Z" fill="white"/>
<path d="M68.6835 152.922C69.0928 155.887 68.5471 161.036 68.5471 161.036C72.4342 151.694 71.9553 143.987 71.9553 143.987C63.638 150.329 61.5942 161.309 61.5942 161.309C63.9805 157.421 68.6835 152.922 68.6835 152.922Z" fill="white"/>
<path d="M45.1309 138.26C45.1309 138.26 44.7216 142.453 45.5402 145.523C45.5402 145.523 56.0725 153.144 58.424 175.188C58.424 175.188 59.5476 167.874 59.5476 159.23C59.5476 150.586 45.1282 138.26 45.1282 138.26H45.1309Z" fill="white"/>
<path d="M65.6846 134.682C66.4524 138.262 66.1955 144.094 66.1955 144.094C71.2062 129.364 69.058 119.645 69.058 119.645C59.1383 130.847 60.2646 146.446 60.2646 146.446C62.7686 137.138 65.6846 134.682 65.6846 134.682Z" fill="white"/>
<path d="M62.0035 122.099C61.8002 112.687 65.6846 102.357 65.6846 102.357C67.7311 107.011 69.058 115.042 69.058 115.042C72.5144 106.529 73.02 102.239 67.592 95.9126C66.9098 94.8208 65.5455 93.5255 65.5455 93.5255C64.0447 94.9572 62.9559 96.9349 62.9559 96.9349C57.0088 108.699 62.0008 122.099 62.0008 122.099H62.0035Z" fill="white"/>
<path d="M87.8728 87.6246C87.8728 87.6246 80.1013 97.5986 78.5684 105.116C77.0355 112.633 80.5106 125.165 80.5106 125.165C80.1013 105.627 87.8728 87.6246 87.8728 87.6246Z" fill="white"/>
<path d="M88.3865 125.987C87.7738 124.146 85.829 122.508 85.829 122.508C81.7894 133.657 87.8755 149.103 87.8755 149.103C85.9841 139.847 87.6722 131.816 87.6722 131.816C89.4111 134.73 91.2516 142.863 91.2516 142.863C95.7513 122.353 86.8536 112.071 86.8536 112.071C88.7958 118.157 88.3865 125.984 88.3865 125.984V125.987Z" fill="white"/>
<path d="M99.7374 128.644C99.074 136.675 93.8065 147.773 93.8065 155.138C93.8065 162.503 95.7487 167.106 95.7487 167.106C95.7487 167.106 93.8065 157.541 97.3859 149.615C97.3859 149.615 97.3351 159.23 99.6358 163.118C99.6358 163.118 98.563 153.605 101.273 145.012C106.532 128.334 104.7 124.887 98.4105 103.684C98.4105 103.684 100.404 120.613 99.7401 128.644H99.7374Z" fill="white"/>
<path d="M117.605 159.128C117.605 159.128 126.367 153.741 132.38 146.138C138.517 150.508 131.029 157.589 130.387 158.515C138.721 151.279 152.297 148.67 155.748 148.132C156.706 147.982 160.398 147.543 160.879 148.758C161.61 150.605 158.576 152.173 156.805 153.23C159.226 152.564 162.736 151.151 163.622 152.719C164.876 154.94 155.978 159.342 150.259 163.391C153.472 162.334 163.244 158.414 164.269 160.696C164.812 161.909 163.945 163.15 159.641 166.07C160.965 165.366 163.306 164.665 163.571 165.845C163.959 167.571 159.138 173.472 133.865 190.498C130.524 192.749 124.799 194.18 121.185 195.682C117.57 197.183 114.911 204.957 114.911 204.957C114.978 196.91 118.456 189.818 118.456 189.818C110.548 197.865 108.365 211.233 108.365 211.233C107.546 201.208 110.139 193.501 110.139 193.501C102.231 203.935 101.276 216.004 101.276 216.004C99.5715 176.654 117.602 159.128 117.602 159.128H117.605Z" fill="white"/>
<path d="M136.391 0C61.0645 0 0 61.0854 0 136.437C0 160.383 6.1744 182.882 17.0063 202.444C19.2 202.966 24.7511 204.427 28.8709 206.729C28.8709 206.729 17.2819 194.999 17.1455 176.994C17.1455 176.994 23.0764 174.808 28.0523 174.299C28.0523 174.299 24.4381 168.81 27.643 159.671C27.643 159.671 32.346 160.49 37.5975 164.446C37.5975 164.446 29.0769 141.054 38.5525 123.391C38.5525 123.391 48.7772 129.051 55.8692 138.939C55.8692 138.939 40.872 114.662 53.0067 89.7013C53.0067 89.7013 59.5503 92.3614 62.9585 96.9296C62.9585 96.9296 64.05 94.9519 65.5481 93.5201C65.5481 93.5201 66.9125 94.8154 67.592 95.9073C67.592 95.9073 63.6728 73.0959 72.7739 58.3986C72.7739 58.3986 77.1372 60.0685 80.9547 66.1058C80.9547 66.1058 98.9375 20.3654 135.666 28.8701C151.538 20.7186 182.838 40.2571 191.669 62.8329C191.669 62.8329 196.235 58.3317 201.62 57.2398C201.62 57.2398 213.822 75.7212 211.029 96.7931C211.029 96.7931 214.132 93.191 215.668 92.7548C215.668 92.7548 218.846 98.7573 220.609 111.964C220.609 111.964 224.341 108.589 227.87 106.234C227.87 106.234 234.21 117.929 234.346 125.909C234.346 125.909 235.438 125.602 236.529 125.909C236.529 125.909 237.433 133.239 233.803 141.527C233.803 141.527 242.035 153.393 243.621 166.078C243.621 166.078 246.69 164.44 251.596 164.031C251.596 164.031 252.72 180.09 248.528 196.765C248.528 196.765 251.494 196.153 253.744 196.048C254.691 197.857 255.547 199.653 256.337 201.441C266.826 182.114 272.786 159.969 272.786 136.429C272.781 61.0854 211.717 0 136.391 0Z" fill="#41B28B"/>
</svg>
